<svg width="62" height="77" viewBox="0 0 62 77" fill="none" xmlns="http://www.w3.org/2000/svg">
<path d="M33.241 0.86728L33.2397 0.866829C31.9097 0.385037 30.4532 0.396038 29.1494 0.890735L29.147 0.89163L5.44225 9.73725C2.98313 10.6554 1.32479 13.1122 1.33825 15.8666L1.48992 41.3162C1.48992 41.3162 1.48992 41.3162 1.48992 41.3162C1.53621 48.9431 4.22049 56.2927 9.04732 62.0156L9.04744 62.0158C11.2424 64.6203 14.0612 66.8658 17.6886 68.8787L33.241 0.86728ZM33.241 0.86728L57.0361 9.40831L57.0367 9.40854C59.5086 10.2916 61.1968 12.7301 61.2103 15.48L61.2103 15.4805L61.3619 40.9494C61.4082 48.5648 58.813 55.9479 54.0644 61.7303C51.8903 64.3722 49.0962 66.6511 45.5082 68.6972L45.5077 68.6975L32.7195 76.011C32.7193 76.0111 32.7191 76.0112 32.7188 76.0114C32.3855 76.199 32.0217 76.2947 31.6565 76.2979C31.2929 76.3009 30.9277 76.2084 30.6002 76.0253L30.5985 76.0244L17.689 68.8789L33.241 0.86728ZM45.1053 27.417L45.1058 27.4176C46.3387 28.6892 46.3508 30.7526 45.1313 32.0409L45.131 32.0412L31.1531 46.7837L45.1053 27.417ZM45.1053 27.417C43.8591 26.1361 41.8431 26.1437 40.6121 27.4438L45.1053 27.417ZM28.8657 39.8305L40.6119 27.4441L28.8657 39.8305ZM28.8657 39.8305L24.2553 35.0893L24.2553 35.0893C23.0078 33.807 20.9957 33.8212 19.7624 35.1195L19.7618 35.1201C18.5423 36.4084 18.5543 38.4721 19.7912 39.7438L28.8657 39.8305ZM19.7915 39.744L26.6594 46.8143L26.6596 46.8145C27.2819 47.4542 28.0957 47.7747 28.9133 47.7663C28.9137 47.7663 28.9141 47.7663 28.9145 47.7663L28.9096 47.3061L19.7915 39.744Z" fill="#DBDBDB" stroke="#B4B4B4" stroke-width="0.920471"/>
</svg>
